<svg height="52" viewBox="0 0 158 52" width="158" xmlns="http://www.w3.org/2000/svg"><path d="m9.474 3.28c-1.505.827-2.692 2.028-3.536 3.522-.845 1.52-1.267 3.254-1.267 5.228v1.84h-4.671v5.523h4.644v21.607h6.492v-21.607h6.545v-5.523h-6.545v-1.574c0-1.414.37-2.534 1.082-3.308.713-.774 1.636-1.174 2.77-1.174 1.11 0 2.138.16 3.036.48l.976-5.574c-1.346-.48-2.797-.72-4.38-.72-1.927 0-3.642.427-5.146 1.28zm18.526 10.72h-7v27h7zm5.681-12.7c-.88-.858-1.94-1.3-3.18-1.3-1.268 0-2.354.442-3.208 1.3-.88.86-1.293 1.926-1.293 3.175 0 1.275.44 2.367 1.293 3.225.854.858 1.94 1.3 3.207 1.3 1.241 0 2.302-.442 3.181-1.3.88-.86 1.319-1.952 1.319-3.227 0-1.249-.44-2.315-1.319-3.173zm21.574 14.763c1.812 2.042 2.745 4.81 2.745 8.304v16.633h-6.557v-15.693c0-2.23-.48-3.95-1.439-5.105-.96-1.156-2.398-1.747-4.29-1.747-2 0-3.546.699-4.585 2.069-1.066 1.37-1.572 3.386-1.572 6.02v14.43h-6.557v-27.303h6.397v4.89c.693-1.773 1.759-3.144 3.225-4.11 1.465-.968 3.198-1.451 5.25-1.451 3.092 0 5.57 1.021 7.383 3.063zm9.395 3.303h-4.65v-5.522h4.65v-1.84c0-1.975.424-3.709 1.27-5.229a8.86 8.86 0 0 1 3.54-3.521c1.507-.827 3.224-1.254 5.153-1.254 1.586 0 3.04.24 4.387.72l-.978 5.575c-.898-.32-1.902-.48-3.039-.48-1.11 0-2.034.4-2.774 1.174-.714.774-1.084 1.894-1.084 3.308v1.574h6.554v5.522h-6.554v21.607h-6.5v-21.634h.026zm16.376-5.905h6.369l-.053 8.113h.105c.5-2.714 1.658-4.803 3.474-6.322 1.816-1.492 4.053-2.252 6.71-2.252l.369 7a4.985 4.985 0 0 0 -.763-.054c-3.369 0-5.842.922-7.421 2.713-1.553 1.818-2.342 4.53-2.342 8.112v10.229h-6.474v-27.539zm25.158 26.613a14.362 14.362 0 0 1 -5.249-5.244c-1.299-2.22-1.935-4.655-1.935-7.33s.636-5.11 1.935-7.33c1.272-2.22 3.022-3.96 5.249-5.244 2.2-1.284 4.665-1.926 7.342-1.926 2.651 0 5.064.642 7.29 1.926a14.364 14.364 0 0 1 5.249 5.244c1.272 2.22 1.935 4.655 1.935 7.33s-.636 5.11-1.935 7.33-3.022 3.96-5.249 5.244c-2.2 1.284-4.639 1.926-7.29 1.926-2.703-.027-5.142-.669-7.342-1.926zm12.962-6.26c1.485-1.632 2.227-3.746 2.227-6.314s-.742-4.655-2.227-6.314c-1.484-1.658-3.366-2.46-5.646-2.46-2.306 0-4.215.828-5.7 2.46-1.484 1.632-2.226 3.746-2.226 6.314s.742 4.655 2.227 6.314c1.484 1.658 3.393 2.46 5.699 2.46 2.28 0 4.162-.828 5.646-2.46zm15.758 15.385c-2.426-1.867-3.718-4.401-3.955-7.656l6.222-.613c.185 1.787.923 3.174 2.215 4.134 1.291.96 2.952 1.44 4.983 1.44 2.294 0 4.06-.693 5.299-2.107 1.213-1.413 1.845-3.387 1.845-5.922v-3.014c-.579 1.2-1.66 2.187-3.216 2.934s-3.295 1.12-5.167 1.12c-2.478 0-4.72-.586-6.724-1.733a12.238 12.238 0 0 1 -4.692-4.749c-1.134-2.027-1.714-4.293-1.714-6.802 0-2.507.58-4.775 1.74-6.775 1.16-2.001 2.742-3.575 4.745-4.722 2.03-1.147 4.299-1.734 6.804-1.734 1.845 0 3.559.374 5.14 1.147 1.582.774 2.742 1.734 3.454 2.908v-3.441h6.117v23.394c0 4.668-1.187 8.323-3.586 10.99-2.399 2.669-5.695 4.002-9.914 4.002-4.007 0-7.197-.934-9.596-2.801zm14.818-17.366c1.45-1.467 2.187-3.334 2.187-5.602 0-2.267-.738-4.108-2.187-5.575-1.451-1.467-3.297-2.187-5.538-2.187-2.188 0-4.033.72-5.484 2.187-1.45 1.467-2.188 3.308-2.188 5.575 0 2.268.712 4.135 2.162 5.602s3.27 2.214 5.51 2.214c2.241 0 4.087-.72 5.538-2.214z" fill="#fff"/></svg>