<?xml version="1.0" encoding="utf-8"?>
<!-- Generator: Adobe Illustrator 24.0.1, SVG Export Plug-In . SVG Version: 6.00 Build 0)  -->
<svg version="1.1" id="Layer_1" xmlns="http://www.w3.org/2000/svg" xmlns:xlink="http://www.w3.org/1999/xlink" x="0px" y="0px"
	 viewBox="0 0 1770 320" style="enable-background:new 0 0 1770 320;" xml:space="preserve">
<style type="text/css">
	.st0{fill:#FAF6ED;}
	.st1{font-family:'ABBvoice-Bold';}
	.st2{font-size:99.0972px;}
	.st3{letter-spacing:-4;}
	.st4{font-family:'GillSansMT';}
	.st5{font-size:30.8724px;}
	.st6{fill:#F7B585;}
	.st7{font-size:99.1px;}
	.st8{fill:#FFFFFF;}
	.st9{font-family:'HelveticaLTStd-Blk';}
	.st10{font-size:32.548px;}
</style>
<path class="st0" d="M837.2,306.7H11.9c-0.9,0-1.7-0.7-1.7-1.7L9.6,16.8c0-0.9,0.7-1.7,1.7-1.7l930.9-0.8c1.2,0,2,1.1,1.6,2.2
	L838.7,305.6C838.5,306.3,837.9,306.7,837.2,306.7z"/>
<path class="st0" d="M1759.3,15.9c0-0.9-0.7-1.7-1.7-1.7h-291.9h-27.6H963c-0.7,0-1.3,0.4-1.6,1.1L856.5,304.5
	c-0.4,1.1,0.4,2.2,1.6,2.2l607.6-0.6v0l292.6-0.3c0.9,0,1.7-0.7,1.7-1.7L1759.3,15.9z"/>
<text transform="matrix(1 0 0 1 219.5317 193.8136)" class="st1 st2 st3">45 FJ$</text>
<text transform="matrix(1 0 0 1 519.2754 153.072)"><tspan x="0" y="0" class="st4 st5">Frais bancaires en cas</tspan><tspan x="0" y="37" class="st4 st5">de découvert</tspan></text>
<text transform="matrix(1 0 0 1 984.4677 199.2961)" class="st6 st1 st7 st3">3 FJ$</text>
<text transform="matrix(1 0 0 1 1216.8074 153.072)"><tspan x="0" y="0" class="st6 st4 st5">Coût moyen mensuel d&apos;un</tspan><tspan x="0" y="37" class="st6 st4 st5">prêt rajo</tspan></text>
<circle class="st8" cx="900.5" cy="153.5" r="40.3"/>
<text transform="matrix(1 0 0 1 876.0562 165.5439)" class="st9 st10">VS</text>
</svg>
