<svg fill="none" height="126" viewBox="0 0 132 126" width="132" xmlns="http://www.w3.org/2000/svg" xmlns:xlink="http://www.w3.org/1999/xlink"><mask id="a" height="37" maskUnits="userSpaceOnUse" width="35" x="46" y="47"><path d="m46.5889 47.0005h34.4112v36.8626h-34.4112z" fill="#fff"/></mask><path clip-rule="evenodd" d="m99.7199 89.4862c-10.973 10.8198-16.7041 13.6948-26.3663 17.2378-12.3043 4.511-26.5252 3.623-37.9693-3.621-11.4439-7.244-19.5924-21.2521-19.3644-35.6452.178-11.2431 5.2523-21.8092 12.4163-29.6309 7.1638-7.822 16.2866-13.1478 25.6977-17.2451 8.5185-3.709 17.6543-6.5291 26.8598-5.4707 14.291 1.6429 26.3263 13.8581 31.7753 28.6228 3.832 10.3853-.067 28.4675-10.228 42.1347z" fill="#faf6ee" fill-rule="evenodd"/><g mask="url(#a)"><path clip-rule="evenodd" d="m71.1662 53.1448c-5.2709 0-7.9865-1.5069-7.9865-2.1511 0-.6452 2.7156-2.1499 7.9865-2.1499 5.271 0 7.9865 1.5047 7.9865 2.1499 0 .6453-2.7155 2.15-7.9865 2.15zm7.9865 2.15c0 .6144-2.7155 2.1499-7.9865 2.1499-5.2709 0-7.9865-1.5047-7.9865-2.1499v-1.8433c1.8794 1.0017 4.9144 1.5355 7.9865 1.5355 3.0722 0 6.1072-.5338 7.9865-1.5663zm0 4.2999c0 .6155-2.7155 2.151-7.9865 2.151-5.2709 0-7.9865-1.5058-7.9865-2.151v-1.8433c1.8794 1.0018 4.9144 1.5366 7.9865 1.5366 3.0722 0 6.1072-.5348 7.9865-1.5663zm0 4.301c0 .6144-2.7155 2.15-7.9865 2.15-1.92.0264-3.8339-.2238-5.6827-.7429-.6645-.5973-1.4504-1.0436-2.3038-1.3084.0031-.0286.0031-.0574 0-.086v-1.8432c1.8794.989 4.9144 1.5228 7.9865 1.5228 3.0722 0 6.1072-.5338 7.9865-1.5664zm0 4.301c0 .6144-2.7155 2.15-7.9865 2.15-1.6538.0153-3.3036-.1643-4.9154-.5349v-2.4089h-.0488c.035-.1422.052-.2886.0488-.435v.435c1.6172.3343 3.2642.4977 4.9154.4861 3.0722 0 6.1072-.5349 7.9865-1.5664zm0 4.3c0 .6154-2.7155 2.151-7.9865 2.151-1.6538.0153-3.3036-.1643-4.9154-.5349v-2.4089h-.0488c.035-.1422.052-.2886.0488-.435v.435c1.6183.3311 3.2642.4935 4.9154.4861 3.0722 0 6.1072-.5349 7.9865-1.5674zm0 4.301c0 .6144-2.7155 2.1499-7.9865 2.1499-1.6538.0153-3.3036-.1642-4.9154-.5348v-2.4078h-.0488c.035-.1422.052-.2898.0488-.4362v.4362c1.6183.33 3.2642.4934 4.9154.4849 3.0722 0 6.1072-.5338 7.9865-1.5663zm-14.7441-5.5288c0 .2387-.5476.8043-2.0163 1.3073l-.399.1295c-1.8145.4979-3.6899.7379-5.5713.7131-5.272 0-7.9875-1.5058-7.9875-2.151v-1.8433c.1347.0743.2759.1486.4244.2154l.3311.1475c.4012.1666.8108.3078 1.2289.4245l.3374.0976c.4001.1051.8235.2027 1.2289.2887.2706.0499.5476.0987.8299.1358l.435.0616c1.0538.1209 2.1118.1761 3.1709.1655 2.0544.0237 4.1019-.241 6.0827-.7863.1666-.0425.329-.0945.4914-.1539l.399-.1475c.2425-.091.4805-.1937.7131-.3078l.1539-.0795.1475-.0796v1.1057c-.0093.0634-.0093.1277 0 .191.0148.0637.035.1242.0615.1836-.0486.1212-.0697.2517-.0615.3821zm0 4.2999c0 .2398-.5476.8054-2.0163 1.3084-1.9336.5939-3.9489.8779-5.9713.8416-5.271 0-7.9865-1.5048-7.9865-2.15v-1.8433c.1347.0743.2759.1475.4244.2154l.3311.1475c.4001.1677.8108.3099 1.2289.4245l.3374.0976c.4001.1104.8235.2027 1.2289.2887.2706.0488.5476.0987.8299.1348l.435.0615c1.0538.122 2.1118.1772 3.1709.1656 2.0543.0234 4.1017-.241 6.0827-.7853.1666-.0435.329-.0955.4914-.1539l.399-.1486c.242-.0917.48-.194.7131-.3067l.1539-.0795.1475-.0796v1.1057c-.0094.0634-.0094.1277 0 .191.0148.0627.035.1242.0615.1836-.0485.1209-.0695.251-.0615.381zm0 4.301c0 .6144-2.7167 2.15-7.9876 2.15-5.271 0-7.9865-1.5058-7.9865-2.15v-1.8433c.1347.0743.2759.1475.4244.2154l.3311.1465c.4001.1687.8108.3109 1.2289.4245l.3374.0976c.4001.1114.8235.2037 1.2289.2897.2706.0488.5476.0976.8299.1348l.435.0615c1.0538.121 2.1118.1772 3.1709.1656 2.2274.0382 4.4464-.2791 6.5741-.9392l.399-.1486c.2421-.0921.48-.1947.7131-.3077l.1539-.0785.1475-.0796zm-7.9876-15.053c1.8825-.0244 3.7577.2165 5.5723.7131l.3014.0987h.0796c.6855.1836 1.3169.5264 1.8432 1.0007l.086.0987.1051.0923c-.0062.0408-.0062.0823 0 .1231 0 .2388-.5476.8044-2.0163 1.3085l-.399.1284c-1.8136.5062-3.6898.7545-5.5713.7375-5.272 0-7.9875-1.5047-7.9875-2.1499 0-.6453 2.7155-2.1511 7.9865-2.1511zm24.575-13.9706c.0031-.0182.0031-.0369 0-.0551-.2515-2.4578-5.0502-3.7906-9.8298-3.7906s-9.5539 1.3021-9.8298 3.7906c-.0031.0182-.0031.0369 0 .0551-.0031.0492-.0031.0984 0 .1475v12.4659h.104c-.0685.1264-.1043.2679-.104.4117v-.4362c-1.6183-.3218-3.2655-.4761-4.9154-.4605-4.7542 0-9.5529 1.3021-9.8298 3.7906-.0031.0182-.0031.0369 0 .0551-.0031.0492-.0031.0984 0 .1476v12.9019c0 2.6233 4.9154 3.9933 9.8298 3.9933 4.614 0 9.2833-1.2289 9.7873-3.5699 1.63.3375 3.2929.5051 4.9579.4977 4.7552 0 9.5539-1.3021 9.8298-3.7906.0062-.0674.0062-.1352 0-.2026v-25.804c.0031-.0491.0031-.0983 0-.1475z" fill="#4d50f4" fill-rule="evenodd"/></g></svg>