<svg id="Layer_1" data-name="Layer 1" xmlns="http://www.w3.org/2000/svg" xmlns:xlink="http://www.w3.org/1999/xlink" viewBox="0 0 98.2 94.6"><defs><style>.cls-1{fill:#fff;}.cls-2{fill:#faf6ee;}.cls-2,.cls-4{fill-rule:evenodd;}.cls-3{mask:url(#mask);}.cls-4{fill:#f7b585;}</style><mask id="mask" x="30.57" y="32.11" width="34.41" height="36.86" maskUnits="userSpaceOnUse"><g transform="translate(-16.02 -14.89)"><g id="a"><path class="cls-1" d="M46.59,47H81V83.86H46.59Z"/></g></g></mask></defs><title>argent</title><path class="cls-2" d="M99.72,89.49c-11,10.82-16.7,13.69-26.37,17.23-12.3,4.52-26.52,3.63-38-3.62S15.79,81.85,16,67.46c.18-11.25,5.25-21.81,12.42-29.63S44.72,24.68,54.13,20.58c8.52-3.71,17.66-6.53,26.86-5.47C95.28,16.75,107.32,29,112.77,43.73c3.83,10.39-.07,28.47-10.23,42.14Z" transform="translate(-16.02 -14.89)"/><g class="cls-3"><path class="cls-4" d="M71.17,53.14c-5.27,0-8-1.5-8-2.15s2.72-2.15,8-2.15,8,1.51,8,2.15-2.71,2.15-8,2.15Zm8,2.15c0,.62-2.71,2.15-8,2.15s-8-1.5-8-2.15V53.45a18.33,18.33,0,0,0,8,1.54,17.87,17.87,0,0,0,8-1.57Zm0,4.3c0,.62-2.71,2.16-8,2.16s-8-1.51-8-2.16V57.75a18.33,18.33,0,0,0,8,1.54,17.87,17.87,0,0,0,8-1.57Zm0,4.31c0,.61-2.71,2.15-8,2.15a20.27,20.27,0,0,1-5.69-.75A6.35,6.35,0,0,0,63.18,64V62.07a18.65,18.65,0,0,0,8,1.52,17.87,17.87,0,0,0,8-1.57Zm0,4.3c0,.61-2.71,2.15-8,2.15a21.38,21.38,0,0,1-4.92-.54V67.4h0a1.58,1.58,0,0,0,0-.43v.43a23.2,23.2,0,0,0,4.92.49,17.87,17.87,0,0,0,8-1.57Zm0,4.3c0,.61-2.71,2.15-8,2.15a21.38,21.38,0,0,1-4.92-.54V71.7h0a1.54,1.54,0,0,0,0-.43v.43a23.2,23.2,0,0,0,4.92.49,17.73,17.73,0,0,0,8-1.57Zm0,4.3c0,.61-2.71,2.15-8,2.15a21.38,21.38,0,0,1-4.92-.54V76h0a1.65,1.65,0,0,0,0-.44V76a23.86,23.86,0,0,0,4.92.48,17.73,17.73,0,0,0,8-1.57ZM64.41,71.27c0,.24-.55.8-2,1.31l-.4.13a20.51,20.51,0,0,1-5.57.71c-5.27,0-8-1.51-8-2.15V69.42l.43.22.33.15a10.48,10.48,0,0,0,1.23.42l.34.1L52,70.6c.27.05.54.1.83.13l.43.07a25.79,25.79,0,0,0,3.17.16,21.88,21.88,0,0,0,6.08-.79A4.74,4.74,0,0,0,63,70l.39-.15c.25-.09.48-.19.72-.3l.15-.08.15-.08v1.1a.64.64,0,0,0,.06.38A.82.82,0,0,0,64.41,71.27Zm0,4.3c0,.24-.55.8-2,1.31a19.16,19.16,0,0,1-6,.84c-5.27,0-8-1.51-8-2.15V73.73l.43.21.33.15a8.92,8.92,0,0,0,1.23.42l.34.1c.4.11.82.2,1.23.29s.54.1.83.13l.43.07a25.79,25.79,0,0,0,3.17.16,22.25,22.25,0,0,0,6.08-.78l.5-.16.39-.15c.25-.09.48-.19.72-.3l.15-.08.15-.08v1.1a.64.64,0,0,0,.06.38A.82.82,0,0,0,64.41,75.57Zm0,4.3c0,.61-2.72,2.15-8,2.15s-8-1.51-8-2.15V78l.43.21.33.15a8.92,8.92,0,0,0,1.23.42l.34.1c.4.11.82.2,1.23.29l.83.14.43.06a25.79,25.79,0,0,0,3.17.16A21,21,0,0,0,63,78.62l.39-.15c.25-.09.48-.19.72-.3l.15-.08.15-.08Zm-8-15.05a19.76,19.76,0,0,1,5.57.71l.3.1h.08a4.4,4.4,0,0,1,1.85,1l.08.1.11.09a.24.24,0,0,0,0,.12c0,.24-.55.81-2,1.31l-.4.13a20.16,20.16,0,0,1-5.57.74c-5.27,0-8-1.51-8-2.15S51.15,64.82,56.42,64.82ZM81,50.85v-.06C80.74,48.33,76,47,71.17,47s-9.56,1.3-9.83,3.79a.06.06,0,0,0,0,.06.33.33,0,0,0,0,.14V63.46h.1a.86.86,0,0,0-.1.41v-.43A23.92,23.92,0,0,0,56.42,63c-4.75,0-9.55,1.31-9.83,3.8v13.1c0,2.62,4.92,4,9.83,4,4.61,0,9.28-1.23,9.79-3.57a23.58,23.58,0,0,0,5,.5c4.75,0,9.55-1.3,9.83-3.79V50.85Z" transform="translate(-16.02 -14.89)"/></g></svg>