<svg id="Layer_1" data-name="Layer 1" xmlns="http://www.w3.org/2000/svg" xmlns:xlink="http://www.w3.org/1999/xlink" viewBox="0 0 98.2 94.6"><defs><style>.cls-1{fill:#fff;}.cls-2{fill:#faf6ee;}.cls-2,.cls-4{fill-rule:evenodd;}.cls-3{mask:url(#mask);}.cls-4{fill:#f7b585;}</style><mask id="mask" x="37.98" y="29.11" width="27" height="40.06" maskUnits="userSpaceOnUse"><g transform="translate(-16.02 -14.89)"><g id="a"><path class="cls-1" d="M54,44H81V84.06H54Z"/></g></g></mask></defs><title>doigt</title><path class="cls-2" d="M99.72,89.49c-11,10.82-16.7,13.69-26.37,17.23-12.3,4.52-26.52,3.63-38-3.62S15.79,81.85,16,67.46c.18-11.25,5.25-21.81,12.42-29.63S44.72,24.68,54.13,20.58c8.52-3.71,17.66-6.53,26.86-5.47C95.28,16.75,107.32,29,112.77,43.73c3.83,10.39-.07,28.47-10.23,42.14Z" transform="translate(-16.02 -14.89)"/><g class="cls-3"><path class="cls-4" d="M64.45,52a1.74,1.74,0,0,1,1.74,1.78v9.35a.89.89,0,0,0,.2.56.93.93,0,0,0,.48.32.89.89,0,0,0,.58-.08.8.8,0,0,0,.4-.41,1.87,1.87,0,0,1,1.39-.83,1.75,1.75,0,0,1,.86.27A1.11,1.11,0,0,1,70.55,64a.9.9,0,0,0,.66.86.88.88,0,0,0,1-.45c.36-.73.55-.85,1-.85a1.72,1.72,0,0,1,.82.28,1.09,1.09,0,0,1,.48,1.05.87.87,0,0,0,.14.49.91.91,0,0,0,.37.33.89.89,0,0,0,1-.16A2.08,2.08,0,0,1,77,65.37c1,.13,1.58.8,1.95,2.13A13.62,13.62,0,0,1,79,72.77a24.63,24.63,0,0,1-1.67,5.9A10.39,10.39,0,0,1,75,82.28H64a57.18,57.18,0,0,1-7.88-14.12,3.54,3.54,0,0,1-.34-2,1.91,1.91,0,0,1,2-1.23c.93.36,1.16,1,1.55,1.72l1.73,3.54a.89.89,0,0,0,1,.46.88.88,0,0,0,.48-.32.87.87,0,0,0,.19-.54v-16A1.74,1.74,0,0,1,64.45,52Zm0-1.78A3.54,3.54,0,0,0,61,53.79V66.05a4.87,4.87,0,0,0-2.72-2.8,3.74,3.74,0,0,0-4.14,2.47,5,5,0,0,0,.38,3.08,57.24,57.24,0,0,0,8.44,15,.89.89,0,0,0,.29.22.76.76,0,0,0,.36.08H75.34a.82.82,0,0,0,.52-.18A11.2,11.2,0,0,0,79,79.39a26,26,0,0,0,1.81-6.34,15.18,15.18,0,0,0-.14-6,4.23,4.23,0,0,0-3.45-3.42,5.68,5.68,0,0,0-1.26.12A2.94,2.94,0,0,0,75,62.42a3.07,3.07,0,0,0-1.85-.61,2.43,2.43,0,0,0-1.4.5,2.63,2.63,0,0,0-2.51-1.39,3.34,3.34,0,0,0-1.31.3V53.79a3.46,3.46,0,0,0-3.48-3.56Zm0-6.23a7.94,7.94,0,0,0-7.84,8,8.92,8.92,0,0,0,1.47,5,1.14,1.14,0,0,0,.25.24,1,1,0,0,0,.32.12,1,1,0,0,0,.34,0,.89.89,0,0,0,.31-.15.91.91,0,0,0,.2-1.24h0A7.46,7.46,0,0,1,58.36,52a6.1,6.1,0,1,1,12.19,0,7.55,7.55,0,0,1-1.14,3.93.87.87,0,0,0-.16.66.91.91,0,0,0,.35.58,1,1,0,0,0,.31.15,1,1,0,0,0,.34,0,.82.82,0,0,0,.32-.12,1.14,1.14,0,0,0,.25-.24,8.84,8.84,0,0,0,1.47-5A7.94,7.94,0,0,0,64.45,44Z" transform="translate(-16.02 -14.89)"/></g></svg>