<svg fill="none" height="126" viewBox="0 0 132 126" width="132" xmlns="http://www.w3.org/2000/svg" xmlns:xlink="http://www.w3.org/1999/xlink"><mask id="a" height="41" maskUnits="userSpaceOnUse" width="27" x="54" y="44"><path d="m54 44h27v40.0638h-27z" fill="#fff"/></mask><path clip-rule="evenodd" d="m99.7199 89.4862c-10.973 10.8198-16.7041 13.6948-26.3663 17.2378-12.3043 4.511-26.5252 3.623-37.9693-3.621-11.4439-7.244-19.5924-21.2521-19.3644-35.6452.178-11.2431 5.2523-21.8092 12.4163-29.6309 7.1638-7.822 16.2866-13.1478 25.6977-17.2451 8.5185-3.709 17.6543-6.5291 26.8598-5.4707 14.291 1.6429 26.3263 13.8581 31.7753 28.6228 3.832 10.3853-.067 28.4675-10.228 42.1347z" fill="#faf6ee" fill-rule="evenodd"/><g mask="url(#a)"><path clip-rule="evenodd" d="m64.4509 52.0128c.9803 0 1.7426.7788 1.7426 1.7809v9.3483c.0015.2004.0689.3948.1918.5532.123.1584.2945.272.4884.3232.1942.0405.3964.0145.574-.0738.1776-.0884.3204-.2339.4052-.4132.1932-.4081.918-.8349 1.3885-.8349.2118 0 .6033.0903.8577.2783.2534.189.4486.4091.4486 1.0571 0 .3967.2908.7706.6667.863.1911.0415.3906.0191.5678-.0638.1771-.083.322-.2218.4125-.3952.3531-.7238.5442-.8412.9793-.8484.1215 0 .5431.0799.8173.2783.2731.1973.4756.4257.4756 1.0571-.001.1718.0472.3403.1388.4857.0917.1453.2229.2615.3783.3347.3116.1381.7062.0717.9533-.1661.3303-.1662.6543-.2181 1.0749-.2098 1.0384.135 1.5774.8006 1.946 2.1288.3718 1.3396.3853 3.2566.0821 5.2723-.3043 2.0167-.9056 4.1331-1.674 5.8985-.7207 1.6563-1.6034 2.9492-2.3823 3.6169h-10.9817c-3.0572-3.6865-5.9763-9.3472-7.8798-14.1199-.3957-1.0427-.431-1.6408-.3396-1.9752.3219-.8619 1.2254-1.3479 2.0001-1.2243.9263.3562 1.1558.9886 1.5514 1.7113l1.7291 3.5464c.1755.3531.6023.5525.9792.46.1891-.0527.3562-.1651.4763-.3204s.1869-.3452.1904-.5415v-16.0276c0-1.0021.7623-1.781 1.7415-1.781zm0-1.781c-1.9139 0-3.483 1.6044-3.483 3.5619v12.256c-.54-1.1922-1.5078-2.4799-2.7218-2.7966-1.6522-.458-3.6761.8931-4.1372 2.4622-.2347.8754-.082 1.8702.3811 3.0884 2.2618 5.562 5.048 10.9007 8.4375 14.9548.0809.0946.1809.1708.2936.2236.1126.0529.2352.0811.3596.0828h11.7575c.1876-.0014.3694-.065.5171-.1807 1.2534-.9492 2.2639-2.5671 3.1029-4.4934.87-2.0294 1.4782-4.1611 1.8101-6.344.3292-2.1808.3281-4.2245-.1361-6.0376-.4475-1.7498-1.6563-3.2068-3.457-3.4217-.4247 0-.8723.0353-1.2514.1246-.2232-.5452-.5368-1.0115-.9252-1.2939-.6522-.4715-1.3147-.621-1.8516-.6117-.5151.0093-.9855.2004-1.4019.5005-.1869-.2918-.3801-.596-.6252-.7788-.5432-.4025-1.2025-.6176-1.8785-.6127-.4507 0-.8879.1288-1.3064.3063v-7.4281c-.0364-2.3832-1.8755-3.566-3.4841-3.5619zm0-6.2318c-4.3179 0-7.8383 3.5983-7.8383 8.0128 0 1.7394.5058 3.593 1.4705 4.9659.0654.0947.1492.1752.2463.2369s.2057.1033.3192.1223c.1135.0189.2296.0149.3415-.0118.112-.0267.2174-.0756.3101-.1439.1886-.1409.3148-.3498.3518-.5823.0371-.2325-.018-.4702-.1535-.6628v-.001c-.6781-.9648-1.1433-2.565-1.1433-3.9233 0-3.4519 2.7187-6.2318 6.0957-6.2318 3.3781 0 6.0968 2.7799 6.0968 6.2318 0 1.3593-.4652 2.9596-1.1423 3.9233-.1356.1924-.1908.4301-.154.6626.0369.2325.1629.4414.3513.5825.0926.0683.198.1173.3099.1441s.228.0309.3415.012.222-.0604.3192-.122.181-.142.2465-.2366c.9658-1.3718 1.4705-3.2265 1.4705-4.9659 0-4.4145-3.5204-8.0128-7.8394-8.0128z" fill="#4d50f4" fill-rule="evenodd"/></g></svg>