<svg fill="none" height="126" viewBox="0 0 132 126" width="132" xmlns="http://www.w3.org/2000/svg" xmlns:xlink="http://www.w3.org/1999/xlink"><mask id="a" height="48" maskUnits="userSpaceOnUse" width="30" x="49" y="41"><path d="m58.2676 41.2268 20.511 3.9869-8.3651 43.0346-20.511-3.9869z" fill="#fff"/></mask><path clip-rule="evenodd" d="m99.7199 89.4843c-10.973 10.8197-16.7041 13.6947-26.3663 17.2377-12.3043 4.511-26.5252 3.623-37.9693-3.621-11.4439-7.244-19.5924-21.252-19.3644-35.6451.178-11.2432 5.2523-21.8093 12.4163-29.631 7.1638-7.822 16.2866-13.1477 25.6977-17.245 8.5185-3.7091 17.6543-6.5291 26.8598-5.4707 14.291 1.6429 26.3263 13.8581 31.7753 28.6228 3.832 10.3853-.067 28.4674-10.228 42.1346z" fill="#faf6ee" fill-rule="evenodd"/><g mask="url(#a)"><path clip-rule="evenodd" d="m56.1369 64.9275 8.3337 1.62c.1296.0251.2522.078.3595.155.1072.0771.1964.1765.2615.2913.0652.1149.1046.2425.1157.3741.0111.1315-.0065.2639-.0515.3881l-4.4302 12.1679 11.7098-14.7471-7.6511-1.4872c-.1288-.025-.2507-.0775-.3573-.1538-.1067-.0763-.1957-.1747-.2609-.2885-.0652-.1139-.1051-.2404-.117-.371s.0045-.2623.0481-.386l4.5926-13.1132-12.5542 15.5513zm1.6347 20.8634c-.1297-.0253-.2523-.0783-.3594-.1555-.1072-.0771-.1963-.1766-.2613-.2916-.065-.1149-.1044-.2426-.1153-.3742s.0068-.264.0519-.3881l5.986-16.4449-8.7739-1.7055c-.155-.0295-.2997-.0987-.42-.2009-.1202-.1022-.2119-.2338-.266-.3821-.0541-.1482-.0688-.3079-.0427-.4635s.0922-.3018.1917-.4242l16.827-20.8431c.1352-.1679.3254-.2826.5369-.3238.2116-.0412.431-.0063.6193.0985.1883.1049.3335.2729.4099.4745.0764.2015.0791.4236.0076.627l-5.9919 17.1029 8.0904 1.5726c.1538.0302.2972.0994.4165.201s.2105.2322.2647.3792c.0543.147.0699.3055.0452.4603-.0247.1547-.0887.3005-.186.4234l-16.1407 20.3292c-.104.1311-.2419.2311-.3989.2891-.1569.058-.3268.0717-.491.0397z" fill="#4d50f4" fill-rule="evenodd"/></g></svg>