<svg id="Layer_1" data-name="Layer 1" xmlns="http://www.w3.org/2000/svg" xmlns:xlink="http://www.w3.org/1999/xlink" viewBox="0 0 98.2 94.6"><defs><style>.cls-1{fill:#fff;}.cls-2{fill:#faf6ee;}.cls-2,.cls-4{fill-rule:evenodd;}.cls-3{mask:url(#mask);}.cls-4{fill:#f7b585;}</style><mask id="mask" x="33.89" y="26.34" width="28.88" height="47.02" maskUnits="userSpaceOnUse"><g transform="translate(-16.02 -14.88)"><g id="a"><path class="cls-1" d="M58.27,41.23l20.51,4-8.37,43-20.51-4Z"/></g></g></mask></defs><title>eclair</title><path class="cls-2" d="M99.72,89.48c-11,10.82-16.7,13.7-26.37,17.24-12.3,4.51-26.52,3.63-38-3.62S15.79,81.85,16,67.46c.18-11.25,5.25-21.81,12.42-29.64S44.72,24.68,54.13,20.58c8.52-3.71,17.66-6.53,26.86-5.47C95.28,16.75,107.32,29,112.77,43.73c3.83,10.39-.07,28.47-10.23,42.14Z" transform="translate(-16.02 -14.88)"/><g class="cls-3"><path class="cls-4" d="M56.14,64.93l8.33,1.62a1,1,0,0,1,.36.15.93.93,0,0,1,.38.67,1,1,0,0,1,0,.39L60.73,79.92,72.44,65.18l-7.66-1.49a1.09,1.09,0,0,1-.35-.15.89.89,0,0,1-.26-.29.85.85,0,0,1-.12-.37.86.86,0,0,1,0-.39l4.59-13.11L56.14,64.93Zm1.63,20.86a1,1,0,0,1-.36-.15,1.08,1.08,0,0,1-.26-.3A.94.94,0,0,1,57,85a.76.76,0,0,1,.05-.39l6-16.44L54.3,66.43a.91.91,0,0,1-.42-.2A.91.91,0,0,1,53.76,65L70.59,44.12a.9.9,0,0,1,.54-.33,1,1,0,0,1,.62.1,1,1,0,0,1,.41.48.94.94,0,0,1,0,.62l-6,17.11,8.09,1.57a.91.91,0,0,1,.42.2.84.84,0,0,1,.26.38.9.9,0,0,1,0,.46.94.94,0,0,1-.19.42L58.66,85.46a.91.91,0,0,1-.89.33Z" transform="translate(-16.02 -14.88)"/></g></svg>