<svg height="40" viewBox="0 0 123 40" width="123" xmlns="http://www.w3.org/2000/svg"><g fill="none"><path d="m7.985 2.204a7.004 7.004 0 0 0 -2.758 2.717c-.66 1.174-.988 2.512-.988 4.035v1.42h-3.644v4.262h3.623v16.675h5.064v-16.675h5.106v-4.261h-5.106v-1.215c0-1.09.288-1.956.844-2.553s1.277-.905 2.162-.905c.864 0 1.667.123 2.367.37l.762-4.302c-1.05-.37-2.182-.556-3.417-.556-1.503 0-2.841.33-4.015.988zm14.143 8.171h-5.064v20.936h5.064z" fill="#000"/><path d="m26.575 1.03a3.513 3.513 0 0 0 -2.532-1.03c-1.009 0-1.873.35-2.553 1.03-.7.679-1.03 1.523-1.03 2.51 0 1.01.35 1.874 1.03 2.554.68.679 1.544 1.029 2.553 1.029.988 0 1.832-.35 2.532-1.03.7-.679 1.05-1.543 1.05-2.552 0-.988-.35-1.832-1.05-2.512z" fill="#4d50f4"/><path d="m43.352 12.208c1.4 1.565 2.12 3.685 2.12 6.361v12.743h-5.064v-12.022c0-1.709-.37-3.026-1.112-3.911-.74-.886-1.852-1.339-3.314-1.339-1.544 0-2.738.536-3.541 1.586-.824 1.05-1.215 2.593-1.215 4.61v11.056h-5.064v-20.916h4.94v3.747c.536-1.359 1.36-2.409 2.492-3.15s2.47-1.112 4.055-1.112c2.388 0 4.303.783 5.703 2.347zm7.103 2.429h-3.623v-4.262h3.623v-1.42c0-1.524.33-2.862.988-4.035a6.871 6.871 0 0 1 2.759-2.718c1.173-.638 2.512-.967 4.014-.967 1.236 0 2.368.185 3.418.556l-.762 4.302c-.7-.247-1.482-.37-2.367-.37-.865 0-1.586.309-2.162.906-.556.597-.844 1.461-.844 2.552v1.215h5.105v4.261h-5.104v16.675h-5.064v-16.695h.02zm12.742-4.261h4.982l-.04 6.156h.081c.392-2.059 1.297-3.644 2.718-4.797 1.42-1.132 3.17-1.709 5.25-1.709l.288 5.312a4.019 4.019 0 0 0 -.597-.041c-2.636 0-4.57.7-5.806 2.058-1.214 1.38-1.832 3.438-1.832 6.155v7.762h-5.064v-20.896zm18.879 20.134a11.103 11.103 0 0 1 -4.076-4.037c-1.009-1.708-1.503-3.582-1.503-5.64 0-2.059.494-3.932 1.503-5.641.988-1.709 2.347-3.047 4.076-4.035 1.709-.988 3.623-1.482 5.702-1.482 2.06 0 3.932.494 5.662 1.482a11.105 11.105 0 0 1 4.076 4.035 11.065 11.065 0 0 1 1.503 5.64c0 2.06-.495 3.933-1.503 5.641-1.009 1.709-2.347 3.047-4.076 4.035-1.709.988-3.603 1.482-5.662 1.482-2.1-.02-3.993-.514-5.702-1.482zm10.067-4.818c1.153-1.256 1.729-2.882 1.729-4.858 0-1.977-.576-3.582-1.73-4.859-1.152-1.276-2.614-1.894-4.384-1.894-1.791 0-3.273.639-4.426 1.894-1.153 1.256-1.73 2.882-1.73 4.859 0 1.976.577 3.582 1.73 4.858s2.635 1.894 4.426 1.894c1.77 0 3.232-.638 4.385-1.894zm11.98 12.146c-1.894-1.44-2.903-3.397-3.088-5.908l4.858-.474c.145 1.38.721 2.45 1.73 3.191 1.008.741 2.305 1.112 3.891 1.112 1.791 0 3.17-.535 4.137-1.626.947-1.092 1.441-2.615 1.441-4.57v-2.327c-.452.927-1.296 1.688-2.511 2.265-1.215.576-2.573.864-4.035.864-1.935 0-3.685-.453-5.25-1.338a9.499 9.499 0 0 1 -3.664-3.664c-.885-1.565-1.338-3.315-1.338-5.25s.453-3.685 1.359-5.229a9.835 9.835 0 0 1 3.705-3.643c1.585-.886 3.356-1.339 5.312-1.339 1.441 0 2.779.289 4.014.886s2.141 1.338 2.697 2.243v-2.655h4.776v18.054c0 3.603-.927 6.423-2.8 8.482-1.873 2.058-4.447 3.088-7.741 3.088-3.129 0-5.62-.72-7.493-2.162zm11.57-13.402c1.132-1.132 1.708-2.573 1.708-4.323s-.576-3.17-1.708-4.302c-1.133-1.133-2.574-1.688-4.324-1.688-1.708 0-3.149.555-4.282 1.688-1.132 1.132-1.708 2.552-1.708 4.302s.556 3.191 1.688 4.323c1.132 1.133 2.553 1.709 4.302 1.709 1.75 0 3.191-.556 4.324-1.709z" fill="#000"/></g></svg>