<svg id="Layer_1" data-name="Layer 1" xmlns="http://www.w3.org/2000/svg" viewBox="0 0 367.93 114.11"><defs><style>.cls-1{fill:#faf6ed;}.cls-2,.cls-7{font-size:30px;font-family:ABBvoice-Bold, ABBvoice;font-weight:700;letter-spacing:-0.05em;}.cls-3{letter-spacing:-0.1em;}.cls-4,.cls-8{font-size:8px;font-family:GillSansMT, Gill Sans MT;}.cls-5{letter-spacing:-0.02em;}.cls-6{letter-spacing:0.02em;}.cls-7,.cls-8{fill:#f7b585;}.cls-9{letter-spacing:-0.02em;}.cls-10{fill:#fff;}.cls-11{font-size:12.7px;font-family:HelveticaLTStd-Blk, Helvetica LT Std;}</style></defs><title>smmobile</title><path class="cls-1" d="M218.16,111.14l-213.31.19a1.54,1.54,0,0,0-1.53,1.54V223.71a1.54,1.54,0,0,0,1.54,1.54H178.33a2.18,2.18,0,0,0,2-1.44l39.83-109.74A2.18,2.18,0,0,0,218.16,111.14Z" transform="translate(-3.32 -111.14)"/><path class="cls-1" d="M369.71,111.14H229.59a2.17,2.17,0,0,0-2.05,1.43L187.71,222.32a2.18,2.18,0,0,0,2.06,2.92l179.94-.16a1.54,1.54,0,0,0,1.54-1.54V112.67A1.53,1.53,0,0,0,369.71,111.14Z" transform="translate(-3.32 -111.14)"/><text class="cls-2" transform="translate(13.05 64)">45 <tspan class="cls-3" x="38.79" y="0">F</tspan><tspan x="53.28" y="0">J$</tspan></text><text class="cls-4" transform="translate(101.03 50.11)">Frais bancai<tspan class="cls-5" x="37.48" y="0">r</tspan><tspan x="40.48" y="0">es en cas</tspan><tspan x="0" y="9.6">de décou</tspan><tspan class="cls-5" x="29.96" y="9.6">v</tspan><tspan x="33.3" y="9.6">e</tspan><tspan class="cls-6" x="37.14" y="9.6">r</tspan><tspan x="40.46" y="9.6">t</tspan></text><text class="cls-7" transform="translate(225.5 64)">3 <tspan class="cls-3" x="20.64" y="0">F</tspan><tspan x="35.13" y="0">J$</tspan></text><text class="cls-8" transform="translate(296.15 50.11)">Coût m<tspan class="cls-5" x="25.13" y="0">oy</tspan><tspan x="32.73" y="0">en mensuel </tspan><tspan x="0" y="9.6">d&apos;un prêt finf</tspan><tspan class="cls-9" x="41.45" y="9.6">r</tspan><tspan x="44.41" y="9.6">og</tspan></text><circle class="cls-10" cx="200.78" cy="54.32" r="15.73"/><text class="cls-11" transform="translate(191.26 59.03)">VS</text></svg>