<svg id="Layer_1" data-name="Layer 1" xmlns="http://www.w3.org/2000/svg" viewBox="0 0 367.93 114.11"><defs><style>.cls-1{fill:#faf6ed;}.cls-2,.cls-6{font-size:44.21px;font-family:ABBvoice-Bold, ABBvoice;font-weight:700;letter-spacing:-0.05em;}.cls-3,.cls-7{font-size:9px;font-family:GillSansMT, Gill Sans MT;}.cls-4{letter-spacing:-0.02em;}.cls-5{letter-spacing:0.02em;}.cls-6,.cls-7{fill:#9381ff;}.cls-8{letter-spacing:-0.02em;}.cls-9{letter-spacing:-0.02em;}.cls-10{fill:#fff;}.cls-11{font-size:12.7px;font-family:HelveticaLTStd-Blk, Helvetica LT Std;}</style></defs><title>smmobile</title><path class="cls-1" d="M218.16,111.14l-213.31.19a1.54,1.54,0,0,0-1.53,1.54V223.71a1.54,1.54,0,0,0,1.54,1.54H178.33a2.18,2.18,0,0,0,2-1.44l39.83-109.74A2.18,2.18,0,0,0,218.16,111.14Z" transform="translate(-3.32 -111.14)"/><path class="cls-1" d="M369.71,111.14H229.59a2.17,2.17,0,0,0-2.05,1.43L187.71,222.32a2.18,2.18,0,0,0,2.06,2.92l179.94-.16a1.54,1.54,0,0,0,1.54-1.54V112.67A1.53,1.53,0,0,0,369.71,111.14Z" transform="translate(-3.32 -111.14)"/><text class="cls-2" transform="translate(8.97 72.92)">45€</text><text class="cls-3" transform="translate(93.88 57.05)">Frais bancai<tspan class="cls-4" x="42.16" y="0">r</tspan><tspan x="45.54" y="0">es en cas</tspan><tspan x="0" y="10.8">de décou</tspan><tspan class="cls-4" x="33.71" y="10.8">v</tspan><tspan x="37.47" y="10.8">e</tspan><tspan class="cls-5" x="41.78" y="10.8">r</tspan><tspan x="45.52" y="10.8">t</tspan></text><text class="cls-6" transform="translate(228.05 72.92)">3€</text><text class="cls-7" transform="translate(282.87 57.05)">Coût m<tspan class="cls-8" x="28.27" y="0">oy</tspan><tspan x="36.82" y="0">en mensuel </tspan><tspan x="0" y="10.8">d&apos;un prêt finf</tspan><tspan class="cls-9" x="46.63" y="10.8">r</tspan><tspan x="49.97" y="10.8">og</tspan></text><circle class="cls-10" cx="200.78" cy="54.32" r="15.73"/><text class="cls-11" transform="translate(191.26 59.03)">VS</text></svg>