<svg id="Layer_1" data-name="Layer 1" xmlns="http://www.w3.org/2000/svg" viewBox="0 0 1750.41 292.42"><defs><style>.cls-1{fill:#faf6ed;}.cls-2{font-size:99.1px;letter-spacing:-0.05em;}.cls-10,.cls-2{font-family:ABBvoice-Bold, ABBvoice;font-weight:700;}.cls-3{letter-spacing:-0.1em;}.cls-4{letter-spacing:-0.05em;}.cls-12,.cls-5{font-size:30.87px;font-family:GillSansMT, Gill Sans MT;}.cls-6{letter-spacing:-0.02em;}.cls-7{letter-spacing:-0.02em;}.cls-8{letter-spacing:0em;}.cls-9{letter-spacing:0.02em;}.cls-10{font-size:99.1px;letter-spacing:-0.05em;}.cls-10,.cls-12{fill:#f7b585;}.cls-11{letter-spacing:-0.1em;}.cls-13{letter-spacing:-0.02em;}.cls-14{fill:#fff;}.cls-15{font-size:32.55px;font-family:HelveticaLTStd-Blk, Helvetica LT Std;}</style></defs><title>vsimage</title><path class="cls-1" d="M837.18,306.7H11.91a1.66,1.66,0,0,1-1.66-1.65L9.58,16.79a1.66,1.66,0,0,1,1.66-1.66l930.86-.85a1.66,1.66,0,0,1,1.56,2.22L838.74,305.61A1.65,1.65,0,0,1,837.18,306.7Z" transform="translate(-9.58 -14.28)"/><path class="cls-1" d="M1759.31,15.93a1.65,1.65,0,0,0-1.66-1.65H963a1.65,1.65,0,0,0-1.55,1.09L856.54,304.48a1.66,1.66,0,0,0,1.56,2.22l607.64-.55v0l292.59-.27a1.66,1.66,0,0,0,1.66-1.66Z" transform="translate(-9.58 -14.28)"/><text class="cls-2" transform="translate(209.95 179.53)">45 <tspan class="cls-3" x="128.13" y="0">F</tspan><tspan class="cls-4" x="175.99" y="0">J$</tspan></text><text class="cls-5" transform="translate(509.7 138.79)">Frais bancai<tspan class="cls-6" x="144.62" y="0">r</tspan><tspan x="156.23" y="0">es en cas</tspan><tspan x="0" y="37.05">de décou</tspan><tspan class="cls-7" x="115.62" y="37.05">v</tspan><tspan class="cls-8" x="128.52" y="37.05">e</tspan><tspan class="cls-9" x="143.31" y="37.05">r</tspan><tspan x="156.16" y="37.05">t</tspan></text><text class="cls-10" transform="translate(974.89 185.02)">3 <tspan class="cls-11" x="68.18" y="0">F</tspan><tspan x="116.04" y="0">J$</tspan></text><text class="cls-12" transform="translate(1207.23 138.79)">Coût m<tspan class="cls-7" x="96.99" y="0">oy</tspan><tspan x="126.31" y="0">en mensuel d&apos;un</tspan><tspan x="0" y="37.05">prêt finf</tspan><tspan class="cls-13" x="98.95" y="37.05">r</tspan><tspan x="110.4" y="37.05">og</tspan></text><circle class="cls-14" cx="890.89" cy="139.21" r="40.32"/><text class="cls-15" transform="translate(866.48 151.27)">VS</text></svg>