<svg id="Layer_1" data-name="Layer 1" xmlns="http://www.w3.org/2000/svg" viewBox="0 0 1750.41 292.42"><defs><style>.cls-1{fill:#faf6ed;}.cls-2,.cls-8{font-size:142.48px;font-family:ABBvoice-Bold, ABBvoice;font-weight:700;}.cls-2{letter-spacing:-0.05em;}.cls-3,.cls-9{font-size:30.87px;font-family:GillSansMT, Gill Sans MT;}.cls-4{letter-spacing:-0.02em;}.cls-5{letter-spacing:-0.02em;}.cls-6{letter-spacing:0em;}.cls-7{letter-spacing:0.02em;}.cls-8,.cls-9{fill:#9381ff;}.cls-8{letter-spacing:-0.05em;}.cls-10{letter-spacing:-0.02em;}.cls-11{fill:#fff;}.cls-12{font-size:32.55px;font-family:HelveticaLTStd-Blk, Helvetica LT Std;}</style></defs><title>vsimage</title><path class="cls-1" d="M837.18,306.7H11.91a1.66,1.66,0,0,1-1.66-1.65L9.58,16.79a1.66,1.66,0,0,1,1.66-1.66l930.86-.85a1.66,1.66,0,0,1,1.56,2.22L838.74,305.61A1.65,1.65,0,0,1,837.18,306.7Z" transform="translate(-9.58 -14.28)"/><path class="cls-1" d="M1759.31,15.93a1.65,1.65,0,0,0-1.66-1.65H963a1.65,1.65,0,0,0-1.55,1.09L856.54,304.48a1.66,1.66,0,0,0,1.56,2.22l607.64-.55v0l292.59-.27a1.66,1.66,0,0,0,1.66-1.66Z" transform="translate(-9.58 -14.28)"/><text class="cls-2" transform="translate(236 198.29)">45€</text><text class="cls-3" transform="translate(509.7 138.79)">Frais bancai<tspan class="cls-4" x="144.62" y="0">r</tspan><tspan x="156.23" y="0">es en cas</tspan><tspan x="0" y="37.05">de décou</tspan><tspan class="cls-5" x="115.62" y="37.05">v</tspan><tspan class="cls-6" x="128.52" y="37.05">e</tspan><tspan class="cls-7" x="143.31" y="37.05">r</tspan><tspan x="156.16" y="37.05">t</tspan></text><text class="cls-8" transform="translate(974.89 198.29)">3€</text><text class="cls-9" transform="translate(1161.27 138.79)">Coût m<tspan class="cls-5" x="96.99" y="0">oy</tspan><tspan x="126.31" y="0">en mensuel d&apos;un</tspan><tspan x="0" y="37.05">prêt finf</tspan><tspan class="cls-10" x="98.95" y="37.05">r</tspan><tspan x="110.4" y="37.05">og</tspan></text><circle class="cls-11" cx="890.89" cy="139.21" r="40.32"/><text class="cls-12" transform="translate(866.48 151.27)">VS</text></svg>